<svg width="151" height="25" viewBox="0 0 151 25" fill="none" xmlns="http://www.w3.org/2000/svg">
<path fill-rule="evenodd" clip-rule="evenodd" d="M15.5253 3.11967H3.10506V15.5984H15.5253V3.11967ZM0 0V18.718H18.6303V0H0Z" transform="translate(132.37 5.98038)" fill="#031323"/>
<path fill-rule="evenodd" clip-rule="evenodd" d="M15.5253 3.11967H3.10506V15.5984H15.5253V3.11967ZM0 0V18.718H18.6303V0H0Z" transform="translate(132.37 5.98038)" fill="url(#paint0_linear)"/>
<path d="M0.450233 1.62847H17.6191C18.4396 1.62847 19.1399 1.54805 19.7202 1.38721C20.3205 1.20627 20.7408 1.01528 20.9809 0.814234C21.241 0.613189 21.4911 0.432248 21.7313 0.271412C21.9714 0.0904705 22.1815 0 22.3616 0C22.7618 0 22.9619 0.251306 22.9619 0.75392V10.0121L23.9224 9.19783C24.7228 8.53438 25.3531 8.03177 25.8134 7.68999C26.2736 7.34821 26.8439 7.03659 27.5243 6.75513C28.2046 6.45356 28.885 6.30277 29.5653 6.30277C30.786 6.30277 31.7465 6.72497 32.4468 7.56936C33.1672 8.41375 33.5274 9.4994 33.5274 10.8263V21.5923C33.5274 22.4769 33.6875 23.0901 34.0076 23.4318C34.3278 23.7535 34.8981 23.9144 35.7185 23.9144C36.0787 23.9144 36.2588 24.0551 36.2588 24.3365C36.2588 24.5778 36.1087 24.6984 35.8086 24.6984H27.6744C27.3742 24.6984 27.2241 24.5778 27.2241 24.3365C27.2241 24.0551 27.4042 23.9144 27.7644 23.9144C28.4047 23.9144 28.875 23.7234 29.1751 23.3414C29.4753 22.9594 29.6954 22.1954 29.8355 21.0495C29.9956 19.8834 30.0756 18.1142 30.0756 15.7419C30.0756 13.7113 29.9655 12.1431 29.7454 11.0374C29.5453 9.93164 29.2852 9.21793 28.965 8.89626C28.6449 8.57459 28.2046 8.41375 27.6443 8.41375C27.4642 8.41375 27.2741 8.43386 27.074 8.47407C26.8939 8.49417 26.6938 8.56454 26.4737 8.68516C26.2536 8.80579 26.0635 8.90631 25.9034 8.98673C25.7634 9.04704 25.5432 9.18778 25.2431 9.40893C24.9629 9.63008 24.7528 9.80097 24.6128 9.92159C24.4727 10.0221 24.2026 10.2332 23.8023 10.5549C23.4021 10.8766 23.122 11.0977 22.9619 11.2183V16.4355C22.9619 19.1697 23.0119 20.8886 23.112 21.5923C23.232 22.5573 23.4121 23.1906 23.6523 23.4922C23.9124 23.7736 24.4627 23.9144 25.3031 23.9144C25.6633 23.9144 25.8434 24.0551 25.8434 24.3365C25.8434 24.5778 25.6933 24.6984 25.3932 24.6984H17.0789C16.7787 24.6984 16.6286 24.5778 16.6286 24.3365C16.6286 24.0551 16.8087 23.9144 17.1689 23.9144C18.0093 23.9144 18.5796 23.7535 18.8798 23.4318C19.2 23.1102 19.4001 22.497 19.4801 21.5923C19.6002 19.9035 19.6602 18.1846 19.6602 16.4355V6.75513C19.6602 5.12666 19.5401 4.07117 19.3 3.58866C19.0799 3.08605 18.5496 2.83474 17.7092 2.83474H11.4059V14.2642C11.4059 17.883 11.4659 20.2553 11.586 21.3812C11.6861 22.2859 11.9862 22.9292 12.4865 23.3112C13.0067 23.6932 13.8172 23.8842 14.9177 23.8842C15.2979 23.8842 15.488 24.035 15.488 24.3365C15.488 24.5778 15.338 24.6984 15.0378 24.6984H4.29223C3.99207 24.6984 3.84199 24.5778 3.84199 24.3365C3.84199 24.035 4.02209 23.8842 4.38227 23.8842C5.54287 23.8842 6.3633 23.6932 6.84355 23.3112C7.3238 22.9292 7.60394 22.2859 7.68398 21.3812C7.80405 19.6924 7.86408 17.31 7.86408 14.234V2.83474H5.10265C3.84199 2.83474 2.81146 3.29714 2.01104 4.22195C1.21063 5.14676 0.81042 6.13189 0.81042 7.17732C0.81042 7.43868 0.660342 7.56936 0.360187 7.56936C0.120062 7.56936 0 7.44873 0 7.20748V2.11098C0 1.90993 0.0300156 1.77925 0.0900467 1.71894C0.170088 1.65863 0.29015 1.62847 0.450233 1.62847Z" fill="#031323"/>
<path d="M50.9169 19.8432C50.9169 21.0092 50.3667 22.1653 49.2661 23.3112C48.1655 24.4371 46.5847 25 44.5236 25C42.2024 25 40.3515 24.2561 38.9708 22.7684C37.59 21.2606 36.8997 19.0692 36.8997 16.1942C36.8997 13.2791 37.6101 10.9067 39.0308 9.0772C40.4515 7.22758 42.4926 6.30277 45.154 6.30277C45.8343 6.30277 46.4846 6.4033 47.105 6.60434C47.7453 6.80539 48.3556 7.11701 48.9359 7.5392C49.5362 7.9614 50.0165 8.57459 50.3767 9.37877C50.7369 10.183 50.9169 11.1178 50.9169 12.1834C50.9169 12.7262 50.7769 13.1082 50.4967 13.3293C50.2166 13.5505 49.7463 13.661 49.086 13.661H40.4115C40.4115 16.4958 40.8918 18.7073 41.8522 20.2955C42.8127 21.8838 44.1234 22.6779 45.7843 22.6779C46.8648 22.6779 47.7553 22.4668 48.4557 22.0446C49.176 21.6023 49.8064 20.8283 50.3467 19.7226C50.4267 19.5617 50.5368 19.4813 50.6768 19.4813C50.8369 19.4813 50.9169 19.6019 50.9169 19.8432ZM44.5536 7.26779C43.373 7.26779 42.4426 7.80056 41.7622 8.86611C41.1019 9.91154 40.6716 11.2485 40.4715 12.877L45.9944 12.4849C46.4546 12.4648 46.7648 12.3643 46.9249 12.1834C47.085 12.0024 47.165 11.731 47.165 11.3691C47.165 8.6349 46.2946 7.26779 44.5536 7.26779Z" fill="#031323"/>
<path d="M59.8628 25C57.4815 25 55.6306 24.2561 54.3099 22.7684C53.0092 21.2606 52.3589 19.1295 52.3589 16.3752C52.3589 13.0378 53.1293 10.5247 54.6701 8.83595C56.2309 7.14716 58.3019 6.30277 60.8833 6.30277C63.2445 6.30277 65.0855 7.08685 66.4062 8.65501C67.7468 10.2031 68.4172 12.3542 68.4172 15.1086C68.4172 18.4258 67.6368 20.9087 66.076 22.5573C64.5352 24.1858 62.4641 25 59.8628 25ZM60.6732 23.9445C62.1539 23.9445 63.1945 23.271 63.7948 21.924C64.4151 20.5569 64.7253 18.6369 64.7253 16.1641C64.7253 13.5103 64.3551 11.3792 63.6147 9.77081C62.8943 8.14234 61.7738 7.32811 60.253 7.32811C58.7922 7.32811 57.7216 8.05187 57.0413 9.4994C56.3609 10.9268 56.0208 12.8569 56.0208 15.2895C56.0208 17.9031 56.401 20.004 57.1614 21.5923C57.9418 23.1604 59.1124 23.9445 60.6732 23.9445Z" fill="#031323"/>
<path d="M75.5079 11.4294C76.2883 8.01166 77.7691 6.30277 79.9502 6.30277C80.7506 6.30277 81.3809 6.50382 81.8412 6.90591C82.3014 7.308 82.5315 7.92119 82.5315 8.74548C82.5315 9.54966 82.2414 10.1226 81.6611 10.4644C81.0808 10.8062 80.4705 10.9771 79.8301 10.9771C79.8301 9.69039 79.3899 9.04705 78.5095 9.04705C77.669 9.04705 76.9386 9.70044 76.3183 11.0072C75.718 12.2939 75.4178 13.8219 75.4178 15.5911C75.4178 18.3253 75.4779 20.2553 75.5979 21.3812C75.718 22.306 76.0182 22.9594 76.4984 23.3414C76.9787 23.7234 77.8191 23.9144 79.0197 23.9144C79.3799 23.9144 79.56 24.0551 79.56 24.3365C79.56 24.5778 79.4099 24.6984 79.1098 24.6984H69.7449C69.4448 24.6984 69.2947 24.5778 69.2947 24.3365C69.2947 24.0551 69.4748 23.9144 69.835 23.9144C70.5954 23.9144 71.1456 23.7234 71.4858 23.3414C71.846 22.9393 72.0661 22.2859 72.1462 21.3812C72.2662 19.6924 72.3262 18.0438 72.3262 16.4355V15.1387C72.3262 14.2541 72.3162 13.5304 72.2962 12.9674C72.2762 12.3844 72.2062 11.7712 72.0861 11.1279C71.9861 10.4644 71.846 9.95175 71.6659 9.58987C71.4858 9.20788 71.2257 8.89626 70.8855 8.65501C70.5453 8.39365 70.1351 8.26297 69.6549 8.26297H68.9345C68.6343 8.26297 68.4843 8.15239 68.4843 7.93124C68.4843 7.7302 68.6343 7.58947 68.9345 7.50905C69.4948 7.34821 70.4353 7.16727 71.756 6.96622C73.0766 6.76518 73.877 6.66466 74.1572 6.66466C75.0577 6.66466 75.5079 8.25292 75.5079 11.4294Z" fill="#031323"/>
<path d="M96.2393 19.8432C96.2393 21.0092 95.689 22.1653 94.5884 23.3112C93.4878 24.4371 91.907 25 89.846 25C87.5248 25 85.6738 24.2561 84.2931 22.7684C82.9124 21.2606 82.222 19.0692 82.222 16.1942C82.222 13.2791 82.9324 10.9067 84.3531 9.0772C85.7738 7.22758 87.8149 6.30277 90.4763 6.30277C91.1566 6.30277 91.807 6.4033 92.4273 6.60434C93.0676 6.80539 93.6779 7.11701 94.2582 7.5392C94.8586 7.9614 95.3388 8.57459 95.699 9.37877C96.0592 10.183 96.2393 11.1178 96.2393 12.1834C96.2393 12.7262 96.0992 13.1082 95.8191 13.3293C95.5389 13.5505 95.0687 13.661 94.4083 13.661H85.7338C85.7338 16.4958 86.2141 18.7073 87.1746 20.2955C88.1351 21.8838 89.4458 22.6779 91.1066 22.6779C92.1872 22.6779 93.0776 22.4668 93.778 22.0446C94.4984 21.6023 95.1287 20.8283 95.669 19.7226C95.749 19.5617 95.8591 19.4813 95.9991 19.4813C96.1592 19.4813 96.2393 19.6019 96.2393 19.8432ZM89.876 7.26779C88.6954 7.26779 87.7649 7.80056 87.0845 8.86611C86.4242 9.91154 85.994 11.2485 85.7939 12.877L91.3167 12.4849C91.777 12.4648 92.0871 12.3643 92.2472 12.1834C92.4073 12.0024 92.4873 11.731 92.4873 11.3691C92.4873 8.6349 91.6169 7.26779 89.876 7.26779Z" fill="#031323"/>
<path d="M113.259 10.0422L114.28 9.19783C114.46 9.0571 114.76 8.80579 115.18 8.44391C115.6 8.08203 115.891 7.84077 116.051 7.72014C116.211 7.59952 116.461 7.41858 116.801 7.17732C117.161 6.93607 117.451 6.77523 117.672 6.69481C117.912 6.59429 118.192 6.50382 118.512 6.4234C118.852 6.34298 119.202 6.30277 119.563 6.30277C120.783 6.30277 121.724 6.72497 122.384 7.56936C123.064 8.39365 123.405 9.47929 123.405 10.8263V21.5923C123.405 22.4769 123.565 23.0901 123.885 23.4318C124.205 23.7535 124.775 23.9144 125.596 23.9144C125.956 23.9144 126.136 24.0551 126.136 24.3365C126.136 24.5778 125.986 24.6984 125.686 24.6984H117.551C117.251 24.6984 117.101 24.5778 117.101 24.3365C117.101 24.0551 117.281 23.9144 117.642 23.9144C118.282 23.9144 118.752 23.7234 119.052 23.3414C119.352 22.9594 119.573 22.1954 119.713 21.0495C119.873 19.8834 119.953 18.1142 119.953 15.7419C119.953 13.7113 119.853 12.1532 119.653 11.0676C119.452 9.98191 119.202 9.2883 118.902 8.98673C118.622 8.68516 118.222 8.53438 117.702 8.53438C117.501 8.53438 117.291 8.56454 117.071 8.62485C116.851 8.68516 116.661 8.75553 116.501 8.83595C116.341 8.91636 116.111 9.0571 115.811 9.25814C115.53 9.45919 115.31 9.63008 115.15 9.77081C114.99 9.89144 114.7 10.1226 114.28 10.4644C113.86 10.7861 113.539 11.0374 113.319 11.2183V21.5923C113.319 22.4769 113.479 23.0901 113.8 23.4318C114.12 23.7535 114.69 23.9144 115.51 23.9144C115.871 23.9144 116.051 24.0551 116.051 24.3365C116.051 24.5778 115.901 24.6984 115.6 24.6984H107.466C107.166 24.6984 107.016 24.5778 107.016 24.3365C107.016 24.0551 107.196 23.9144 107.556 23.9144C108.197 23.9144 108.667 23.7234 108.967 23.3414C109.267 22.9594 109.487 22.1954 109.627 21.0495C109.787 19.8834 109.868 18.1142 109.868 15.7419C109.868 13.7113 109.767 12.1532 109.567 11.0676C109.367 9.98191 109.117 9.2883 108.817 8.98673C108.537 8.68516 108.137 8.53438 107.616 8.53438C107.416 8.53438 107.206 8.56454 106.986 8.62485C106.766 8.68516 106.576 8.75553 106.416 8.83595C106.256 8.91636 106.026 9.0571 105.725 9.25814C105.445 9.45919 105.225 9.63008 105.065 9.77081C104.905 9.89144 104.615 10.1226 104.195 10.4644C103.774 10.7861 103.454 11.0374 103.234 11.2183C103.214 11.8818 103.204 13.1886 103.204 15.1387V16.4355C103.204 18.9284 103.264 20.5971 103.384 21.4415C103.464 22.0044 103.524 22.3965 103.564 22.6176C103.604 22.8388 103.694 23.08 103.834 23.3414C103.994 23.5826 104.205 23.7435 104.465 23.8239C104.725 23.8842 105.085 23.9144 105.545 23.9144C105.925 23.9144 106.116 24.0551 106.116 24.3365C106.116 24.5778 105.965 24.6984 105.665 24.6984H97.4111C97.1109 24.6984 96.9608 24.5778 96.9608 24.3365C96.9608 24.0551 97.1409 23.9144 97.5011 23.9144C98.6817 23.8942 99.3921 23.4519 99.6322 22.5875C99.8723 21.7029 99.9924 19.6522 99.9924 16.4355V14.9879C99.9924 14.2039 99.9824 13.6007 99.9624 13.1785C99.9624 12.7362 99.9424 12.2135 99.9023 11.6104C99.8823 10.9871 99.8223 10.5147 99.7223 10.193C99.6422 9.87133 99.5322 9.53961 99.3921 9.19783C99.252 8.85605 99.0719 8.6148 98.8518 8.47407C98.6317 8.33333 98.3615 8.26297 98.0414 8.26297H97.2009C96.9408 8.26297 96.8107 8.16244 96.8107 7.9614C96.8107 7.70004 97.5311 7.41858 98.9719 7.11701C100.433 6.81544 101.503 6.66466 102.184 6.66466C102.944 6.66466 103.324 7.15722 103.324 8.14234C103.324 8.92642 103.314 9.52955 103.294 9.95175L104.195 9.19783C104.295 9.11741 104.545 8.90631 104.945 8.56454C105.365 8.20265 105.625 7.9815 105.725 7.90109C105.825 7.82067 106.036 7.65983 106.356 7.41858C106.696 7.15722 106.946 6.99638 107.106 6.93607C107.286 6.85565 107.516 6.75513 107.796 6.6345C108.077 6.49377 108.347 6.4033 108.607 6.36309C108.887 6.32288 109.177 6.30277 109.477 6.30277C110.558 6.30277 111.418 6.64455 112.059 7.32811C112.719 8.01166 113.119 8.91637 113.259 10.0422Z" fill="#031323"/>
<defs>
<linearGradient id="paint0_linear" x2="1" gradientUnits="userSpaceOnUse" gradientTransform="matrix(18.6303 -18.718 18.6304 59.1582 -9.31518 -10.8611)">
<stop stop-color="#1DDEBB"/>
<stop offset="1" stop-color="#98FFFB"/>
</linearGradient>
</defs>
</svg>
